<?xml version="1.0" encoding="UTF-8" standalone="no"?><svg viewBox="0 0 105 105" xmlns="http://www.w3.org/2000/svg" fill-rule="evenodd" clip-rule="evenodd" stroke-linejoin="round" stroke-miterlimit="2"><path d="M52.4 74.19c-.2 0-.4 0-.56-.04-.74-.15-1.45-.42-2.17-.66-.89-.29-2.19-.73-3.16-1.1-.9-.36-1.8-.74-2.67-1.15a101.05 101.05 0 01-6.56-3.53c-1.35-.8-3.28-1.86-4.67-2.85a25.8 25.8 0 01-3.69-3.1 26.13 26.13 0 01-3.1-3.97 35.85 35.85 0 01-4.39-10.25A20.4 20.4 0 0121 42.8c.03-1.58.36-3.3.61-4.7.23-1.26.57-2.52.91-3.71.33-1.17.84-2.29 1.12-3.47.28-1.2.55-2.5.58-3.76a25.04 25.04 0 00-1.38-8.12c-.59-1.5-1.68-3.6-2.55-5.28a73.17 73.17 0 00-2.7-4.84c-1.38-2.23-5.41-7.4-5.58-8.56-.18-1.16 3.1.85 4.54 1.58 2.3 1.17 6.54 3.9 9.23 5.46 2.3 1.31 4.53 2.77 6.95 3.84 3.16 1.4 8.97 3.32 12.01 4.5a121.63 121.63 0 0113.74 6.25 44.5 44.5 0 015 3.12 49.18 49.18 0 015.13 4.25 25.68 25.68 0 012.95 3.77c.79 1.16 1.62 2.33 2.1 3.65a23.65 23.65 0 011.2 5.48 18.7 18.7 0 01-.37 4.93c-.42 2.21-1.35 5.57-2.13 8.32-1.02 3.6-2.95 9.53-4 13.24-.83 2.98-1.68 6.43-2.24 9-.46 2.13-.73 4.3-1.13 6.43-.5 2.73-1.33 6.68-1.9 9.98-.55 3.26-.92 8.43-1.48 9.82-.29.73-1.44-.8-1.83-1.48a27.76 27.76 0 01-2.03-5.2 61.9 61.9 0 01-1.58-7.58c-.4-2.86-.66-7.09-.85-9.6-.14-1.83.29-4.49-.3-5.48a.85.85 0 00-.18-.23c-.02-.95-.05-1.95-.04-2.7.03-2.03.04-4.3-.04-6.46-.09-2.37-.14-5.2-.48-7.76-.37-2.86-1.07-6.4-1.76-9.37-.68-2.87-1.35-5.84-2.43-8.5-.17-.44-.37-.89-.57-1.33.83-.25 1.7-.44 2.39-.65.82-.25 1.84-.55 2.46-.78.43-.17 1.2-.37 1.26-.62.05-.25-.63-.6-.95-.87-.38-.33-1-.78-1.36-1.11-.27-.27-.52-.65-.73-.88-.16-.19-.27-.57-.52-.53-.38.06-1.2.59-1.79.88l-2.5 1.22c-.6-1.04-1.2-2.02-1.72-2.83a26.46 26.46 0 00-3.6-4.38c-1.71-1.7-6.65-5.84-6.65-5.84s.96 1.35 1.37 2.08c.57.98 1.4 2.53 2.01 3.85.98 2.1 3 6.41 4.2 9.32-.38.21-.74.45-1.08.72-1.13.9-5.25 4.4-5.25 4.4s1.86-.13 2.77-.36c1.21-.3 3.24-.95 4.7-1.49.39 1.4.7 2.81 1.05 4.22a204.8 204.8 0 011.67 7.74c.69 3.42 1.86 9.77 2.44 12.74.33 1.69.61 3.59 1.04 5.06a19.63 19.63 0 001.67 4.02zM69.96 95.8c-.27-.63-.63-1.98-.71-3-.12-1.4-.26-3.64 0-5.44.46-3.12.6-9.32 2.76-13.3 2.28-4.18 7.39-8.22 10.93-11.83 3.32-3.4 8.57-8.6 10.3-9.83.68-.47.2 1.65.11 2.47-.32 3.28-1.11 12.63-2.04 17.18a41.36 41.36 0 01-3.54 10.17c-1.01 1.85-2.8 3.17-4.46 4.46-2.24 1.73-6.88 4.3-8.96 5.96-1.38 1.1-2.77 3.45-3.5 3.97-.33.24-.74-.44-.9-.8zm-17-7.5c.06-.01-.1-.1-.13-.16-.4-.78-1.41-3.07-2.28-4.52-1.12-1.87-2.65-4.8-4.44-6.7a20.45 20.45 0 00-6.35-4.63c-3-1.33-8-2.52-11.62-3.35-3.32-.77-7.2-.89-10.08-1.66-2.52-.68-6.27-2.96-7.23-2.98-.95-.02.9 1.98 1.52 2.85 1.1 1.56 3.7 4.48 5.14 6.46a45.56 45.56 0 013.49 5.43c1.24 2.35 2.61 6.62 3.97 8.68 1.03 1.55 2.45 3.06 4.2 3.67 2.06.72 5.44 1.02 8.13.62 3.21-.47 8.54-2.82 11.16-3.44 1.47-.35 3.79-.2 4.52-.27z" fill="#fff"/></svg>
