<?xml version="1.0" encoding="UTF-8" standalone="no"?>
<!DOCTYPE svg PUBLIC "-//W3C//DTD SVG 1.1//EN" "http://www.w3.org/Graphics/SVG/1.1/DTD/svg11.dtd">
<svg width="100%" height="100%" viewBox="0 0 448 512" version="1.1" xmlns="http://www.w3.org/2000/svg" xmlns:xlink="http://www.w3.org/1999/xlink" xml:space="preserve" xmlns:serif="http://www.serif.com/" style="fill-rule:evenodd;clip-rule:evenodd;stroke-linejoin:round;stroke-miterlimit:2;">
    <path d="M224,202.66C194.746,202.671 170.68,226.746 170.68,256C170.68,285.261 194.759,309.34 224.02,309.34C253.281,309.34 277.36,285.261 277.36,256C277.338,226.739 253.261,202.671 224,202.66ZM348.71,161.66C343.224,147.756 332.204,136.736 318.3,131.25C297.3,122.96 247.3,124.82 224,124.82C200.7,124.82 150.75,122.89 129.69,131.25C115.786,136.736 104.766,147.756 99.28,161.66C91,182.66 92.85,232.71 92.85,255.99C92.85,279.27 91,329.26 99.32,350.33C104.806,364.234 115.826,375.254 129.73,380.74C150.73,389.03 200.73,387.17 224.04,387.17C247.35,387.17 297.28,389.1 318.34,380.74C332.244,375.254 343.264,364.234 348.75,350.33C357.1,329.33 355.18,279.28 355.18,256C355.18,232.72 357.1,182.74 348.75,161.67L348.71,161.66ZM224,338C179.016,338 142,300.984 142,256C142,211.016 179.016,174 224,174C268.984,174 306,211.016 306,256C306,256.033 306,256.067 306,256.1C306,301.029 269.029,338 224.1,338C224.067,338 224.033,338 224,338ZM309.38,189.7C309.377,189.7 309.373,189.7 309.37,189.7C298.87,189.7 290.23,181.06 290.23,170.56C290.23,160.06 298.87,151.42 309.37,151.42C319.87,151.42 328.51,160.06 328.51,170.56C328.51,170.587 328.51,170.613 328.51,170.64C328.51,181.114 319.894,189.735 309.42,189.74L309.38,189.7ZM400,32L48,32C21.668,32 -0,53.668 0,80L0,432C0,458.332 21.668,480 48,480L400,480C426.332,480 448,458.332 448,432L448,80C448,53.668 426.332,32 400,32ZM382.88,322C381.59,347.63 375.74,370.34 357.03,389C338.32,407.66 315.63,413.63 290.03,414.85C263.62,416.34 184.44,416.34 158.03,414.85C132.4,413.56 109.77,407.7 91.03,389C72.29,370.3 66.4,347.58 65.18,322C63.69,295.58 63.69,216.39 65.18,190C66.47,164.37 72.25,141.66 91.03,123C109.81,104.34 132.5,98.44 158.03,97.22C184.44,95.73 263.62,95.73 290.03,97.22C315.66,98.51 338.36,104.37 357.03,123.07C375.7,141.77 381.66,164.49 382.88,190.12C384.37,216.44 384.37,295.56 382.88,322Z" style="fill:white;fill-rule:nonzero;"/>
</svg>
